<svg width="487" height="116" viewBox="0 0 487 116" fill="none" xmlns="http://www.w3.org/2000/svg">
<path d="M0.463379 20.1482C0.463379 9.1025 9.41768 0.148193 20.4634 0.148193H449.596C460.642 0.148193 469.596 9.1025 469.596 20.1482V81.8651V97.063V102.221C469.596 103.16 469.85 104.081 470.33 104.888C471.048 106.095 472.223 106.961 473.588 107.29L474.047 107.401L484.665 109.521C484.884 109.564 485.089 109.397 485.089 109.173C485.089 108.978 485.247 108.819 485.443 108.819H485.776C486.469 108.819 486.727 109.727 486.138 110.092L480.488 113.587C478.602 114.638 476.509 115.264 474.356 115.42L471.453 115.631H468.663C467.484 115.631 466.308 115.526 465.147 115.319L464.387 115.183L461.882 114.557L457.465 113.174C455.531 112.569 453.516 112.261 451.49 112.261H448.967H428.338H20.4634C9.41767 112.261 0.463379 103.307 0.463379 92.261V20.1482Z" fill="white" fill-opacity="0.3"/>
</svg>
